HIERARCHY
ROOT Hips
{
	OFFSET 0.00000 0.00000 0.00000
	CHANNELS 6 Xposition Yposition Zposition Zrotation Yrotation Xrotation 
	JOINT LHipJoint
	{
		OFFSET 0 0 0
		CHANNELS 3 Zrotation Yrotation Xrotation
		JOINT LeftUpLeg
		{
			OFFSET 1.58895 -1.83665 0.71753
			CHANNELS 3 Zrotation Yrotation Xrotation
			JOINT LeftLeg
			{
				OFFSET 2.50528 -6.88321 0.00000
				CHANNELS 3 Zrotation Yrotation Xrotation
				JOINT LeftFoot
				{
					OFFSET 2.63244 -7.23257 0.00000
					CHANNELS 3 Zrotation Yrotation Xrotation
					JOINT LeftToeBase
					{
						OFFSET 0.23691 -0.65090 1.72750
						CHANNELS 3 Zrotation Yrotation Xrotation
						End Site
						{
							OFFSET 0.00000 -0.00000 0.92561
						}
					}
				}
			}
		}
	}
	JOINT RHipJoint
	{
		OFFSET 0 0 0
		CHANNELS 3 Zrotation Yrotation Xrotation
		JOINT RightUpLeg
		{
			OFFSET -1.51435 -1.83665 0.71753
			CHANNELS 3 Zrotation Yrotation Xrotation
			JOINT RightLeg
			{
				OFFSET -2.54551 -6.99375 0.00000
				CHANNELS 3 Zrotation Yrotation Xrotation
				JOINT RightFoot
				{
					OFFSET -2.66027 -7.30903 0.00000
					CHANNELS 3 Zrotation Yrotation Xrotation
					JOINT RightToeBase
					{
						OFFSET -0.22981 -0.63138 2.03959
						CHANNELS 3 Zrotation Yrotation Xrotation
						End Site
						{
							OFFSET -0.00000 -0.00000 1.07060
						}
					}
				}
			}
		}
	}
	JOINT LowerBack
	{
		OFFSET 0 0 0
		CHANNELS 3 Zrotation Yrotation Xrotation
		JOINT Spine
		{
			OFFSET -0.02651 1.86275 -0.11152
			CHANNELS 3 Zrotation Yrotation Xrotation
			JOINT Spine1
			{
				OFFSET 0.01019 1.86224 0.04087
				CHANNELS 3 Zrotation Yrotation Xrotation
				JOINT Neck
				{
					OFFSET 0 0 0
					CHANNELS 3 Zrotation Yrotation Xrotation
					JOINT Neck1
					{
						OFFSET -0.01926 1.80512 0.08867
						CHANNELS 3 Zrotation Yrotation Xrotation
						JOINT Head
						{
							OFFSET 0.05516 1.76451 -0.38475
							CHANNELS 3 Zrotation Yrotation Xrotation
							End Site
							{
								OFFSET 0.01592 1.82587 -0.14001
							}
						}
					}
				}
				JOINT LeftShoulder
				{
					OFFSET 0 0 0
					CHANNELS 3 Zrotation Yrotation Xrotation
					JOINT LeftArm
					{
						OFFSET 3.47116 1.51376 0.14491
						CHANNELS 3 Zrotation Yrotation Xrotation
						JOINT LeftForeArm
						{
							OFFSET 4.78095 -0.00000 0.00000
							CHANNELS 3 Zrotation Yrotation Xrotation
							JOINT LeftHand
							{
								OFFSET 3.58615 -0.00000 -0.00000
								CHANNELS 3 Zrotation Yrotation Xrotation
								JOINT LeftFingerBase
								{
									OFFSET 0 0 0
									CHANNELS 3 Zrotation Yrotation Xrotation
									JOINT LeftHandIndex1
									{
										OFFSET 0.65981 -0.00000 0.00000
										CHANNELS 3 Zrotation Yrotation Xrotation
										End Site
										{
											OFFSET 0.53196 -0.00000 0.00000
										}
									}
								}
								JOINT LThumb
								{
									OFFSET 0 0 0
									CHANNELS 3 Zrotation Yrotation Xrotation
									End Site
									{
										OFFSET 0.54008 -0.00000 0.54008
									}
								}
							}
						}
					}
				}
				JOINT RightShoulder
				{
					OFFSET 0 0 0
					CHANNELS 3 Zrotation Yrotation Xrotation
					JOINT RightArm
					{
						OFFSET -3.31725 1.61216 0.35156
						CHANNELS 3 Zrotation Yrotation Xrotation
						JOINT RightForeArm
						{
							OFFSET -4.48913 -0.00000 0.00000
							CHANNELS 3 Zrotation Yrotation Xrotation
							JOINT RightHand
							{
								OFFSET -3.70510 -0.00000 0.00000
								CHANNELS 3 Zrotation Yrotation Xrotation
								JOINT RightFingerBase
								{
									OFFSET 0 0 0
									CHANNELS 3 Zrotation Yrotation Xrotation
									JOINT RightHandIndex1
									{
										OFFSET -0.44914 -0.00000 0.00000
										CHANNELS 3 Zrotation Yrotation Xrotation
										End Site
										{
											OFFSET -0.36211 -0.00000 0.00000
										}
									}
								}
								JOINT RThumb
								{
									OFFSET 0 0 0
									CHANNELS 3 Zrotation Yrotation Xrotation
									End Site
									{
										OFFSET -0.36763 -0.00000 0.36763
									}
								}
							}
						}
					}
				}
			}
		}
	}
}
MOTION
Frames: 9
Frame Time: .0083333
-0.8238 18.7586 5.1682 -3.7452 -0.4279 3.2695 0.0000 0.0000 0.0000 -9.5758 -10.5730 -4.8950 1.3738 7.4175 20.9583 1.4066 8.3692 -26.8325 8.0591 -16.1625 -52.7751 0.0000 0.0000 0.0000 0.0000 0.0000 0.0000 0.0000 0.0000 0.0000 -0.0000 -0.0000 0.0000 -0.0000 -0.0000 0.0000 -4.5465 2.9361 5.8069 -4.6137 3.5326 1.3887 -2.4750 1.7724 -1.8006 -1.8292 0.9125 -12.0944 0.2681 1.9853 36.0992 0.7441 0.6497 14.3925 -0.0000 -0.0000 0.0000 -46.4220 -34.5164 56.5147 74.7911 -59.1077 -46.8682 -0.0000 0.0000 -41.7385 -4.4096 -22.5599 1.6946 -7.1250 0.0000 -0.0000 -20.6002 8.4519 18.6294 -0.0000 -0.0000 0.0000 25.0578 30.8653 64.2204 -134.9487 50.7936 -97.7215 0.0000 -0.0000 -23.5486 -5.8655 -46.6566 4.2727 7.1250 -0.0000 -0.0000 51.8971 -70.5655 -34.5134
-0.8206 18.7593 5.1732 -3.7557 -0.4236 3.2928 0.0000 0.0000 0.0000 -9.5774 -10.5838 -4.8949 1.3735 7.4168 20.9561 1.4124 8.3498 -26.8606 8.0637 -16.1659 -52.7917 0.0000 0.0000 0.0000 0.0000 0.0000 0.0000 0.0000 0.0000 0.0000 -0.0000 -0.0000 0.0000 -0.0000 -0.0000 0.0000 -4.5034 2.9080 5.6824 -4.6151 3.5115 1.4453 -2.4892 1.7605 -1.6701 -1.8356 0.9268 -12.1440 0.2276 2.0235 36.0950 0.7349 0.6593 14.4021 -0.0000 0.0000 0.0000 -46.2860 -34.5389 56.3728 74.8129 -59.1103 -46.8869 -0.0000 0.0000 -41.6859 -4.5057 -22.4805 1.7259 -7.1250 0.0000 -0.0000 -20.6624 8.5291 18.6603 -0.0000 0.0000 0.0000 24.9770 31.0618 62.4261 -135.0462 50.7458 -97.7970 0.0000 -0.0000 -24.1311 -5.4908 -46.2371 3.9713 7.1250 -0.0000 -0.0000 51.2595 -70.1911 -33.6365
-0.8154 18.7589 5.1755 -3.7428 -0.4227 3.2853 0.0000 0.0000 0.0000 -9.6155 -10.5683 -4.8837 1.3737 7.4172 20.9575 1.4190 8.3272 -26.8928 8.0669 -16.1682 -52.8032 0.0000 0.0000 0.0000 0.0000 0.0000 0.0000 0.0000 0.0000 0.0000 -0.0000 -0.0000 0.0000 -0.0000 -0.0000 0.0000 -4.4629 2.8869 5.6402 -4.6058 3.4929 1.4964 -2.4963 1.7503 -1.5921 -1.8519 0.9447 -12.1510 0.1747 2.0733 36.0798 0.7237 0.6714 14.3969 0.0000 0.0000 0.0000 -46.2376 -34.5747 56.2556 74.8340 -59.1128 -46.9050 -0.0000 0.0000 -41.6548 -4.5365 -22.3621 1.7290 -7.1250 0.0000 -0.0000 -20.6891 8.6412 18.6387 0.0000 0.0000 0.0000 25.0179 31.3591 60.7661 -134.6927 50.9181 -97.5230 0.0000 -0.0000 -23.7086 -6.0663 -45.9948 4.3713 7.1250 -0.0000 -0.0000 50.2033 -70.2402 -32.8810
-0.8098 18.7590 5.1747 -3.6932 -0.4393 3.2836 0.0000 0.0000 0.0000 -9.6892 -10.5306 -4.9008 1.3735 7.4167 20.9559 1.4213 8.3350 -26.9149 8.0798 -16.1777 -52.8498 0.0000 0.0000 0.0000 0.0000 0.0000 0.0000 0.0000 0.0000 0.0000 -0.0000 -0.0000 0.0000 -0.0000 -0.0000 0.0000 -4.4329 2.8670 5.6602 -4.6239 3.4676 1.5182 -2.5302 1.7376 -1.5781 -1.8213 0.9772 -12.0893 0.0995 2.1369 36.0288 0.6961 0.6935 14.3600 -0.0000 0.0000 0.0000 -46.2272 -34.5612 56.1540 74.8514 -59.1149 -46.9199 -0.0000 0.0000 -41.6127 -4.3786 -22.3793 1.6699 -7.1250 0.0000 -0.0000 -20.5949 8.6207 18.5498 -0.0000 0.0000 0.0000 25.2366 31.8348 59.3956 -133.6062 51.4333 -96.6765 0.0000 -0.0000 -21.1233 -7.5453 -44.9426 5.3454 7.1250 -0.0000 -0.0000 46.5368 -70.0769 -29.9806
-0.8045 18.7601 5.1727 -3.6257 -0.4759 3.2943 0.0000 0.0000 0.0000 -9.7799 -10.5007 -4.9243 1.3729 7.4152 20.9514 1.4194 8.3521 -26.9126 8.1033 -16.1947 -52.9338 0.0000 0.0000 0.0000 0.0000 0.0000 0.0000 0.0000 0.0000 0.0000 -0.0000 -0.0000 0.0000 -0.0000 -0.0000 0.0000 -4.3452 2.8469 5.7036 -4.7004 3.4420 1.5281 -2.6584 1.7249 -1.5825 -1.7501 1.0079 -12.0308 0.0516 2.1771 36.0020 0.6691 0.7142 14.3354 0.0000 -0.0000 0.0000 -46.1955 -34.4229 56.0480 75.0227 -59.1352 -47.0669 -0.0000 0.0000 -41.4457 -4.1398 -22.4421 1.5827 -7.1250 0.0000 -0.0000 -20.4498 8.5548 18.4281 0.0000 -0.0000 0.0000 25.5863 32.5279 58.2625 -131.6115 52.3245 -95.1071 0.0000 -0.0000 -16.2722 -10.0631 -42.5775 6.8467 7.1250 -0.0000 -0.0000 39.3181 -69.2692 -24.1457
-0.8015 18.7612 5.1713 -3.5890 -0.5459 3.3264 0.0000 0.0000 0.0000 -9.8255 -10.4527 -4.9626 1.3733 7.4161 20.9540 1.4164 8.3443 -26.8856 8.0898 -16.1849 -52.8856 0.0000 0.0000 0.0000 0.0000 0.0000 0.0000 0.0000 0.0000 0.0000 -0.0000 -0.0000 0.0000 -0.0000 -0.0000 0.0000 -4.2934 2.8586 5.7420 -4.7325 3.4559 1.5100 -2.7243 1.7321 -1.6173 -1.7138 1.0168 -11.9925 0.0367 2.1862 36.0525 0.6580 0.7204 14.3507 -0.0000 -0.0000 0.0000 -46.2372 -34.2819 55.9830 75.2438 -59.1610 -47.2568 -0.0000 0.0000 -41.2738 -3.9721 -22.3922 1.5152 -7.1250 0.0000 -0.0000 -20.3545 8.5968 18.3112 -0.0000 -0.0000 0.0000 26.0334 33.2794 57.4793 -128.7991 53.4685 -92.8638 0.0000 -0.0000 -10.0368 -12.4926 -40.5640 8.1987 7.1250 -0.0000 -0.0000 33.2414 -68.5014 -19.5417
-0.7998 18.7616 5.1700 -3.6024 -0.6472 3.3589 0.0000 0.0000 0.0000 -9.8030 -10.3208 -5.0372 1.3748 7.4200 20.9659 1.4122 8.3287 -26.8447 8.0764 -16.1752 -52.8374 0.0000 0.0000 0.0000 0.0000 0.0000 0.0000 0.0000 0.0000 0.0000 -0.0000 -0.0000 0.0000 -0.0000 -0.0000 0.0000 -4.3671 2.9234 5.8056 -4.6362 3.5315 1.4689 -2.5945 1.7704 -1.7047 -1.8141 0.9800 -11.9689 0.0372 2.1629 36.1495 0.6732 0.6962 14.3899 0.0000 0.0000 0.0000 -46.4344 -34.4869 55.9858 75.0434 -59.1376 -47.0847 -0.0000 0.0000 -41.3901 -3.8245 -22.3775 1.4579 -7.1250 0.0000 -0.0000 -20.2684 8.6061 18.2181 0.0000 0.0000 0.0000 26.5044 33.9468 57.0737 -125.3510 54.7067 -90.0707 0.0000 -0.0000 -3.5274 -15.3532 -38.2201 9.6408 7.1250 -0.0000 -0.0000 26.5747 -67.4335 -14.7569
-0.7966 18.7614 5.1682 -3.6314 -0.7678 3.3546 0.0000 0.0000 0.0000 -9.7792 -10.1804 -5.0748 1.3763 7.4238 20.9772 1.4080 8.3407 -26.8227 8.0902 -16.1852 -52.8868 0.0000 0.0000 0.0000 0.0000 0.0000 0.0000 0.0000 0.0000 0.0000 -0.0000 -0.0000 0.0000 -0.0000 -0.0000 0.0000 -4.4113 3.0105 5.8722 -4.5356 3.6405 1.4629 -2.4782 1.8250 -1.7561 -1.9011 0.9274 -11.9510 0.0046 2.1226 36.1794 0.6695 0.6633 14.4002 -0.0000 0.0000 0.0000 -46.6879 -34.8832 55.9932 74.6574 -59.0916 -46.7535 -0.0000 0.0000 -41.6347 -3.6112 -22.4858 1.3827 -7.1250 0.0000 -0.0000 -20.1351 8.4974 18.1273 -0.0000 0.0000 0.0000 27.0622 34.5655 57.1032 -121.5492 55.8828 -86.9447 0.0000 0.0000 2.3461 -15.3543 -36.5257 9.2818 7.1250 -0.0000 -0.0000 24.4172 -65.9519 -12.6780
-0.7935 18.7617 5.1655 -3.6311 -0.9091 3.3569 0.0000 0.0000 0.0000 -9.8036 -10.0969 -5.0874 1.3774 7.4269 20.9863 1.3976 8.4564 -26.8282 8.1191 -16.2062 -52.9907 0.0000 0.0000 0.0000 0.0000 0.0000 0.0000 0.0000 0.0000 0.0000 -0.0000 -0.0000 0.0000 -0.0000 -0.0000 0.0000 -4.3966 3.0939 5.9142 -4.5273 3.7493 1.4698 -2.4884 1.8791 -1.7710 -1.8831 0.8976 -11.9547 -0.0021 2.0756 36.1538 0.6563 0.6456 14.3900 -0.0000 0.0000 0.0000 -46.8422 -35.0689 55.9526 74.6201 -59.0871 -46.7215 -0.0000 0.0000 -41.6966 -3.3714 -22.6327 1.2987 -7.1250 0.0000 -0.0000 -19.9837 8.3511 18.0334 -0.0000 0.0000 0.0000 27.8140 35.1241 57.6682 -117.6537 56.9034 -83.6998 0.0000 0.0000 7.5622 -17.1424 -36.1856 10.3210 7.1250 -0.0000 -0.0000 21.9905 -66.1616 -11.4666
